<?xml version="1.0" standalone="no"?>
<!DOCTYPE svg PUBLIC "-//W3C//DTD SVG 20010904//EN"
 "http://www.w3.org/TR/2001/REC-SVG-20010904/DTD/svg10.dtd">
<svg version="1.0" xmlns="http://www.w3.org/2000/svg"
 width="192.000000pt" height="192.000000pt" viewBox="0 0 192.000000 192.000000"
 preserveAspectRatio="xMidYMid meet">
<metadata>
Created by potrace 1.11, written by Peter Selinger 2001-2013
</metadata>
<g transform="translate(0.000000,192.000000) scale(0.100000,-0.100000)"
fill="#000000" stroke="none">
<path d="M900 1419 c-37 -25 -54 -29 -110 -29 -36 0 -70 -4 -76 -8 -6 -4 -23
-31 -38 -60 -22 -43 -36 -57 -70 -72 -65 -29 -76 -47 -75 -118 1 -53 -3 -68
-30 -110 -17 -27 -31 -56 -31 -65 0 -9 14 -37 32 -61 27 -40 31 -53 30 -103
-2 -82 3 -92 65 -119 49 -22 57 -30 79 -79 28 -64 46 -74 124 -68 49 4 59 2
97 -26 54 -39 80 -39 128 -1 35 28 44 30 107 29 78 -2 86 3 120 71 17 33 35
51 68 67 69 35 81 54 74 121 -5 52 -3 61 25 102 34 50 40 100 15 121 -32 27
-46 70 -40 122 8 60 -8 90 -62 112 -48 21 -80 51 -87 85 -11 50 -38 64 -115
62 -64 -3 -71 -1 -103 28 -43 37 -69 37 -127 -1z m247 -353 c-5 -89 -4 -96 16
-109 l22 -15 -26 -10 c-24 -9 -27 -18 -34 -76 -3 -36 -3 -71 1 -78 5 -10 4
-10 -5 -2 -8 7 -12 39 -12 84 l0 72 -31 -6 c-17 -3 -39 -6 -49 -6 -11 0 -18
-3 -18 -7 1 -5 0 -21 -1 -38 -2 -30 -2 -29 -12 8 -9 32 -13 37 -30 31 -19 -6
-20 -3 -14 22 10 37 15 42 27 24 6 -10 7 4 3 42 -8 69 -1 96 21 78 10 -8 15
-31 15 -66 l0 -54 45 0 c41 0 45 2 46 25 1 14 3 30 4 35 1 6 3 39 4 75 1 53 4
65 17 65 15 0 16 -11 11 -94z m-280 17 c-2 -24 -1 -43 4 -43 5 0 9 -16 9 -35
0 -25 8 -44 25 -61 28 -28 33 -49 10 -40 -8 3 -15 1 -15 -4 0 -6 4 -10 9 -10
5 0 14 -14 20 -31 18 -51 13 -57 -10 -12 -31 63 -40 68 -93 44 -24 -12 -48
-30 -51 -41 -6 -20 -7 -20 -27 5 l-20 26 26 24 c14 13 26 30 26 37 0 21 44
152 54 159 4 4 5 12 2 18 -12 19 4 33 21 19 11 -9 14 -24 10 -55z m113 35 c-1
-28 -2 -30 -11 -15 -6 10 -8 25 -5 33 9 24 16 16 16 -18z m-20 -49 c0 -5 -9
-9 -20 -9 -11 0 -20 6 -20 14 0 9 7 12 20 9 11 -3 20 -9 20 -14z m-50 -369 c0
-5 -4 -10 -10 -10 -5 0 -10 5 -10 10 0 6 5 10 10 10 6 0 10 -4 10 -10z"/>
<path d="M816 1003 c-9 -26 -16 -52 -16 -59 0 -18 29 -25 50 -14 16 9 18 15
10 36 -6 14 -10 36 -10 49 0 42 -18 36 -34 -12z"/>
</g>
</svg>
